<svg height="512pt" viewBox="0 0 512 512.00007" width="512pt" xmlns="http://www.w3.org/2000/svg"><path d="m509.785156 15.433594c-.773437-6.972656-6.277344-12.480469-13.253906-13.253906-118.703125-13.183594-219.890625 34.300781-302.429688 119.265624-23.621093 24.316407-44.109374 50.054688-61.597656 74.894532-29.597656-1.203125-62.414062 12.1875-85.679687 35.453125l-42.429688 42.429687c-4.800781 4.800782-5.777343 12.230469-2.382812 18.109375 3.394531 5.878907 10.3125 8.742188 16.875 6.988281 9.84375-2.644531 25.839843-5.71875 41.207031-6.433593 5.617188-.261719 10.285156-.179688 14.164062.117187-9.363281 18.007813-16.539062 33.09375-18.917968 36.871094-3.726563 5.929688-2.863282 13.644531 2.089844 18.597656l24.550781 24.550782c-35.730469 48.730468-36.320313 73.6875-36.195313 77.222656.261719 7.488281 6.101563 14.503906 15.773438 14.503906 8.375 0 32.394531-3.554688 76.121094-36.027344l25.824218 25.824219c4.988282 4.988281 12.78125 5.824219 18.71875 2.011719 4.039063-2.597656 18.238282-9.472656 35.265625-18.371094.28125 12.691406-1.441406 31.328125-5.179687 56.589844-2.125 14.328125 15.292968 22.953125 25.445312 12.804687l42.429688-42.429687c21.878906-21.878906 34.566406-54.375 33.628906-84.859375 26.167969-18.285157 53.390625-39.855469 78.808594-64.78125 84.15625-82.527344 130.179687-182.949219 117.164062-300.078125zm-28.695312 15.4375c2.394531 32.34375-.160156 63.695312-7.601563 94.035156-18.480469-5.820312-36.546875-17.253906-52.863281-33.566406-16.375-16.378906-27.832031-34.519532-33.628906-53.066406 30.328125-7.332032 61.699218-9.816407 94.09375-7.402344zm-422.953125 232.039062 9.898437-9.902344c11.972656-11.96875 27.542969-20.589843 43.027344-24.464843-8.089844 12.839843-15.300781 25.101562-21.660156 36.417969-9.824219-2.167969-20.746094-2.570313-31.265625-2.050782zm28.386719 72.230469c3.246093-6.40625 7.171874-14.4375 14.378906-28.054687l19.746094 19.75c-7.347657 7.882812-13.980469 15.371093-19.957032 22.46875zm73.355468-5.738281c10.929688-10.925782 21.410156-12.921875 34.429688-13.203125-.285156 12.6875-2.320313 23.523437-13.214844 34.417969-46.570312 46.570312-78.492188 67.367187-97.582031 76.648437 9.417969-19.457031 30.269531-51.765625 76.367187-97.863281zm16.871094 95.964844-15.46875-15.472657c7.0625-6 14.527344-12.652343 22.402344-20.027343l21.019531 21.019531c-13.820313 7.378906-19.585937 10.15625-27.953125 14.480469zm82.214844 18.570312-12.007813 12.011719c.972657-14.550781.636719-25.152344-.738281-33.332031 11.03125-6.210938 23.011719-13.253907 35.566406-21.132813-3.578125 15.859375-11.621094 31.257813-22.820312 42.453125zm-26.953125-48.167969-26.894531-26.898437c19.902343-21.898438 19.160156-43 19.160156-67.652344 0-8.285156-6.714844-15-15-15-23.03125 0-45.195313-1.234375-67.652344 19.164062l-25.683594-25.683593c70.132813-122.980469 151.199219-200.839844 242.28125-232.902344 7.210938 23.332031 21.246094 45.8125 41.191406 65.757813 19.851563 19.855468 42.226563 33.855468 65.457032 41.09375-32.25 90.582031-110.089844 171.597656-232.859375 242.121093zm0 0"/><path d="m378.199219 133.765625c-29.246094-29.242187-76.832031-29.242187-106.074219 0-29.242188 29.246094-29.242188 76.832031 0 106.074219 29.242188 29.242187 76.828125 29.246094 106.074219 0 29.242187-29.242188 29.242187-76.828125 0-106.074219zm-21.214844 84.859375c-17.546875 17.546875-46.101563 17.546875-63.644531 0-17.546875-17.546875-17.546875-46.097656 0-63.644531 17.542968-17.542969 46.09375-17.546875 63.644531 0 17.546875 17.546875 17.546875 46.097656 0 63.644531zm0 0"/></svg>