<?xml version="1.0" standalone="no"?>
<!DOCTYPE svg PUBLIC "-//W3C//DTD SVG 20010904//EN"
 "http://www.w3.org/TR/2001/REC-SVG-20010904/DTD/svg10.dtd">
<svg version="1.0" xmlns="http://www.w3.org/2000/svg"
 width="700.000000pt" height="700.000000pt" viewBox="0 0 700.000000 700.000000"
 preserveAspectRatio="xMidYMid meet">
<metadata>
Created by potrace 1.11, written by Peter Selinger 2001-2013
</metadata>
<g transform="translate(0.000000,700.000000) scale(0.100000,-0.100000)"
fill="#000000" stroke="none">
<path d="M2330 6987 c-343 -39 -587 -320 -576 -662 4 -113 18 -168 68 -274 70
-146 222 -279 379 -330 61 -20 81 -23 175 -28 79 -5 110 -1 214 22 81 18 212
97 284 170 113 116 175 260 183 425 6 121 -14 218 -66 326 -95 192 -297 332
-506 350 -33 3 -64 7 -70 8 -5 1 -44 -2 -85 -7z m158 -443 c80 -33 132 -111
133 -197 1 -67 -11 -97 -62 -151 -45 -50 -87 -68 -157 -68 -155 -2 -263 173
-193 310 22 42 92 106 126 115 43 10 117 6 153 -9z"/>
<path d="M4555 6992 c-284 -19 -526 -215 -594 -483 -33 -130 -26 -271 18 -390
140 -374 568 -537 924 -352 108 56 221 173 274 283 51 106 65 161 68 275 10
288 -160 536 -432 630 -71 25 -190 42 -258 37z m128 -451 c128 -55 168 -231
75 -337 -59 -67 -142 -92 -226 -68 -157 45 -209 245 -93 360 64 64 158 82 244
45z"/>
<path d="M835 5606 c-360 -269 -471 -367 -522 -456 -39 -68 -72 -150 -79 -197
-3 -20 -8 -45 -10 -57 -7 -34 -5 -2757 2 -2806 10 -67 48 -175 86 -238 56 -95
162 -187 522 -455 191 -142 349 -257 350 -255 55 69 248 332 251 341 2 7 -106
94 -246 197 -138 102 -256 192 -264 200 -12 13 65 41 643 235 384 129 684 235
722 255 100 54 207 166 258 270 23 47 49 113 58 148 19 75 26 272 10 273 -43
3 -418 1 -421 -3 -3 -2 -5 -33 -6 -69 -2 -104 -17 -148 -68 -199 l-46 -46
-525 -174 c-289 -96 -528 -175 -532 -176 -5 -1 -9 -2 -10 -3 -34 -18 -348
-114 -351 -106 -1 5 -2 586 -2 1290 1 1261 2 1281 21 1325 24 53 43 70 237
215 475 355 527 396 520 410 -15 26 -248 334 -253 334 -3 0 -158 -114 -345
-253z"/>
<path d="M5690 5692 c-69 -92 -126 -170 -128 -174 -2 -4 158 -128 355 -276
197 -148 366 -278 375 -288 10 -11 25 -38 34 -59 16 -37 17 -139 19 -1325 0
-707 0 -1287 -1 -1290 -2 -3 -320 100 -707 230 -518 173 -714 242 -741 263
-59 45 -80 97 -80 199 -1 71 -4 88 -16 89 -132 6 -421 2 -424 -6 -9 -24 4
-211 20 -272 44 -181 173 -344 335 -425 41 -20 288 -107 549 -193 261 -86 484
-160 495 -165 11 -5 84 -30 162 -55 78 -25 145 -50 148 -55 3 -5 -5 -15 -17
-22 -31 -18 -496 -366 -502 -377 -4 -6 177 -259 250 -349 2 -3 429 312 469
346 6 4 71 54 146 110 136 101 198 160 247 237 31 49 77 157 86 205 3 19 8 46
11 60 6 28 6 2761 0 2800 -17 122 -79 256 -159 346 -35 39 -185 158 -424 337
-203 152 -371 277 -373 277 -2 -1 -60 -76 -129 -168z"/>
<path d="M2358 4805 c-2 -2 -25 -5 -53 -9 -232 -28 -443 -203 -519 -428 -24
-73 -28 -96 -31 -198 -10 -318 221 -604 530 -658 50 -9 187 -9 240 0 122 19
242 85 346 188 86 85 147 195 174 310 21 94 14 266 -14 345 -99 273 -318 437
-598 449 -40 2 -74 2 -75 1z m136 -450 c72 -30 127 -114 128 -194 0 -122 -95
-220 -215 -221 -195 -1 -292 233 -153 370 64 64 155 80 240 45z"/>
<path d="M4464 4792 c-322 -65 -541 -345 -521 -666 8 -131 19 -171 76 -281 46
-90 162 -209 251 -257 118 -65 189 -83 325 -82 105 0 130 4 200 28 78 27 146
61 188 95 66 53 93 80 130 130 171 227 180 529 23 763 -95 142 -248 240 -426
274 -64 12 -178 10 -246 -4z m226 -442 c133 -68 160 -241 54 -346 -51 -51 -99
-68 -175 -61 -157 14 -243 185 -163 324 57 98 182 135 284 83z"/>
<path d="M2269 1290 c-226 -46 -411 -208 -483 -423 -25 -74 -30 -114 -31 -212
0 -107 6 -142 40 -230 52 -139 169 -275 295 -342 105 -57 184 -77 305 -77 120
-1 142 2 228 33 97 34 168 80 247 160 336 339 210 905 -238 1068 -37 13 -67
23 -67 22 0 0 -16 2 -35 6 -75 14 -178 12 -261 -5z m201 -425 c79 -19 152
-118 152 -205 -2 -233 -307 -305 -414 -96 -35 68 -21 173 29 231 60 69 137 92
233 70z"/>
<path d="M4500 1299 c-111 -19 -174 -42 -260 -94 -128 -78 -213 -188 -273
-355 -26 -74 -32 -249 -12 -340 55 -239 262 -444 498 -494 131 -27 297 -11
407 40 245 114 396 358 386 624 -4 107 -19 165 -66 265 -80 168 -235 292 -424
339 -77 20 -188 26 -256 15z m142 -433 c34 -5 58 -17 91 -47 144 -126 70 -361
-119 -377 -259 -21 -333 336 -87 422 21 7 45 12 53 11 8 -1 36 -5 62 -9z"/>
</g>
</svg>
